# xmcd
# 
# Track frame offsets:
#     182
#     15677
#     44580
#     63900
#     80335
#     97035
#     113892
#     132692
#     150765
#     165805
#     187990
#     206275
#     219990
#     243840
# 
# Disc length: 3509
# 
# Revision: 1
# Processed by: cddbd v1.5.2PL0 Copyright (c) Steve Scherf et al.
# Submitted via: BonkEnc v1.0.5
# 
DISCID=ab0db30e
DTITLE=Commodores - All The Great Love Songs
DYEAR=0
DGENRE=
TTITLE0=Sweet Love
TTITLE1=Just To Be Close To You
TTITLE2=Easy
TTITLE3=Three Times A Lady
TTITLE4=Say Yeah
TTITLE5=Still
TTITLE6=Lovin' You
TTITLE7=Sail On
TTITLE8=Old-fashion Love
TTITLE9=Jesus Is Love
TTITLE10=Lady (You Bring Me Up)
TTITLE11=Oh No
TTITLE12=This Love
TTITLE13=Lucy
EXTD=
EXTT0=Commodores
EXTT1=Commodores
EXTT2=Commodores
EXTT3=Commodores
EXTT4=Commodores
EXTT5=Commodores
EXTT6=Commodores
EXTT7=Commodores
EXTT8=Commodores
EXTT9=Commodores
EXTT10=Commodores
EXTT11=Commodores
EXTT12=Commodores
EXTT13=Commodores
PLAYORDER=
